# xmcd CD database file
#
# Track frame offsets:
#	150
#	18276
#	36265
#	56234
#	71658
#	91998
#	110958
#	124542
#	137887
#	156223
#	169909
#	187128
#	207570
#
# Disc length: 3068 seconds
#
# Revision: 2
# Processed by: cddbd v1.5.2PL0 Copyright (c) Steve Scherf et al.
# Submitted via: CDex 2.21
#
DISCID=c70bfa0d
DTITLE=Collin Raye - Everlasting
DYEAR=2014
DGENRE=Country
TTITLE0=Divine Everlasting Love
TTITLE1=Say Hello to Heaven
TTITLE2=How Deep Is Your Love
TTITLE3=Against All Odds
TTITLE4=Love Song for a Vampire
TTITLE5=[Everything I Do] I Do It for You
TTITLE6=Marie
TTITLE7=If
TTITLE8=We're All Alone
TTITLE9=She's Got a Way
TTITLE10=Sorry Seems to Be the Hardest Word
TTITLE11=How Am I Supposed to Live Without You
TTITLE12=Same Old Lang Syne
EXTD=YEAR: 2014
EXTT0=
EXTT1=
EXTT2=
EXTT3=
EXTT4=
EXTT5=
EXTT6=
EXTT7=
EXTT8=
EXTT9=
EXTT10=
EXTT11=
EXTT12=
PLAYORDER=
